<?xml version="1.0" encoding="utf-8"?>
<svg viewBox="0 0 500 500" xmlns="http://www.w3.org/2000/svg">
  <path d="M 243.746 37.559 L 238.546 49.059 L 242.646 55.259 C 244.946 58.659 247.446 63.959 248.346 66.959 L 250.046 72.559 L 252.246 66.259 C 253.546 62.759 255.946 57.759 257.646 54.959 C 259.346 52.259 260.746 49.759 260.746 49.359 C 260.846 47.959 250.446 26.159 249.746 26.159 C 249.346 26.159 246.646 31.259 243.746 37.559 Z" stroke="none" style="fill: rgb(240, 193, 93);"/>
  <path d="M 204.346 62.159 C 196.746 63.559 190.046 65.959 181.546 70.359 C 170.846 75.859 166.346 79.259 153.146 91.659 C 134.746 108.959 129.246 112.759 97.746 130.259 C 77.446 141.559 64.346 157.359 59.346 176.859 C 55.346 192.359 59.746 200.659 76.546 209.059 C 86.546 214.059 91.846 215.859 98.846 216.559 C 104.746 217.259 105.546 217.059 106.046 215.459 C 107.746 209.859 110.846 202.859 112.646 200.459 C 129.246 178.659 139.846 167.159 146.646 163.759 C 149.346 162.359 151.746 162.059 158.146 162.459 C 162.546 162.659 167.246 163.259 168.346 163.659 C 170.346 164.259 170.546 163.859 171.146 158.459 C 172.646 145.759 179.746 137.159 194.246 130.159 C 206.146 124.359 220.146 120.559 235.946 118.659 C 241.546 118.059 241.746 117.959 242.746 114.359 C 245.046 105.959 243.146 82.559 239.646 75.859 C 236.946 70.759 232.046 65.759 227.946 63.959 C 222.946 61.659 211.646 60.859 204.346 62.159 Z" stroke="none" style="fill: rgb(240, 193, 93);"/>
  <path d="M 270.946 64.959 C 262.446 68.059 259.146 72.359 256.246 84.359 C 254.246 92.459 253.246 112.859 254.546 116.259 C 255.446 118.559 256.446 118.959 265.946 120.459 C 285.246 123.659 311.946 134.359 319.546 141.959 C 323.846 146.259 326.746 153.959 326.746 160.859 L 326.746 165.359 L 330.046 164.459 C 331.746 164.059 336.446 163.659 340.246 163.659 C 349.446 163.659 356.746 167.159 365.146 175.559 C 373.746 184.059 384.246 198.859 389.746 210.159 C 390.946 212.659 392.246 215.359 392.746 216.159 C 394.846 220.159 415.846 214.759 426.746 207.459 C 440.746 197.959 443.246 191.059 438.246 175.359 C 435.246 165.959 429.746 157.059 421.446 148.359 C 413.046 139.659 404.446 133.459 389.946 125.759 C 370.746 115.559 360.746 108.159 343.746 91.759 C 327.446 76.059 318.946 70.359 305.246 66.159 C 295.146 62.959 278.146 62.459 270.946 64.959 Z" stroke="none" style="fill: rgb(240, 193, 93);"/>
  <path d="M 199.246 146.659 C 194.446 148.359 190.446 152.559 188.746 157.559 C 186.746 163.659 187.946 174.859 191.246 181.759 C 193.946 187.159 200.146 195.159 201.746 195.159 C 202.146 195.159 204.346 193.259 206.746 191.059 C 213.746 184.459 218.546 182.659 229.846 182.659 C 239.246 182.659 239.646 182.759 243.546 185.859 L 247.546 189.159 L 250.746 186.159 C 254.346 182.759 259.846 181.559 270.246 181.959 C 281.846 182.259 288.246 185.559 293.446 193.759 C 294.546 195.559 295.046 195.259 300.046 190.059 C 303.846 186.059 305.746 183.059 306.546 179.959 C 310.146 165.759 308.646 155.959 301.846 149.859 C 296.246 144.859 289.846 144.159 275.246 147.059 C 260.046 149.959 234.146 150.059 221.946 147.159 C 212.246 144.859 204.846 144.659 199.246 146.659 Z" stroke="none" style="fill: rgb(240, 193, 93);"/>
  <path d="M 151.246 181.659 C 144.046 185.559 140.546 191.859 138.846 204.159 C 135.546 226.759 130.246 243.359 121.246 259.259 C 118.246 264.459 115.346 270.859 114.846 273.459 C 113.046 283.559 116.646 290.759 125.646 295.059 C 132.946 298.459 146.246 298.759 154.546 295.659 C 161.346 293.159 162.446 291.859 160.546 288.959 C 155.246 280.859 154.546 268.159 158.746 258.359 C 161.046 253.059 166.546 247.159 169.246 247.159 C 170.446 247.159 170.346 246.459 168.746 243.859 C 165.246 238.159 166.746 227.659 172.946 216.059 C 176.246 209.659 179.646 206.759 185.646 205.159 C 187.846 204.559 189.746 203.559 189.746 202.859 C 189.646 200.359 185.846 193.559 182.946 190.559 C 174.946 182.559 158.246 177.859 151.246 181.659 Z" stroke="none" style="fill: rgb(240, 193, 93);"/>
  <path d="M 329.546 181.659 C 324.846 183.359 317.146 188.659 313.446 192.659 C 310.546 195.759 306.746 202.259 306.746 204.059 C 306.746 204.659 308.946 206.259 311.546 207.559 C 321.746 212.759 328.746 224.259 328.746 235.959 C 328.746 239.559 328.146 242.559 327.246 243.859 C 325.746 245.959 325.846 246.159 329.146 247.559 C 335.746 250.259 341.746 263.859 341.746 275.959 C 341.746 282.759 340.946 285.159 337.046 289.359 C 335.646 290.759 334.746 292.459 335.146 292.959 C 335.446 293.459 338.246 295.059 341.246 296.559 C 348.346 299.859 356.446 300.059 366.146 296.959 C 381.646 292.059 385.846 280.259 377.746 263.959 C 376.046 260.459 374.046 256.959 373.346 256.159 C 367.346 249.159 359.246 222.959 357.846 205.659 C 357.046 196.359 354.646 189.559 350.646 185.259 C 346.146 180.459 337.046 178.859 329.546 181.659 Z" stroke="none" style="fill: rgb(240, 193, 93);"/>
  <path d="M 30.246 192.259 C 26.946 192.659 21.746 193.359 18.746 193.759 L 13.246 194.359 L 22.746 203.359 C 30.646 210.759 32.646 212.159 34.746 211.759 C 36.146 211.459 40.646 210.559 44.746 209.759 C 48.846 208.859 53.546 208.459 55.146 208.759 C 57.546 209.259 56.646 208.059 48.646 200.259 C 43.546 195.259 38.646 191.259 37.846 191.259 C 36.946 191.359 33.546 191.759 30.246 192.259 Z" stroke="none" style="fill: rgb(240, 193, 93);"/>
  <path d="M 453.146 195.759 C 447.846 202.759 446.246 204.359 441.746 207.259 L 437.246 210.159 L 442.946 210.159 C 446.046 210.159 451.846 210.859 455.746 211.659 C 459.746 212.459 463.446 212.859 464.046 212.459 C 464.746 212.059 467.546 209.559 470.446 206.859 C 473.246 204.159 476.946 200.859 478.646 199.459 C 483.446 195.459 482.646 194.559 474.046 193.759 C 469.746 193.359 463.946 192.859 461.146 192.459 C 456.146 191.959 455.946 191.959 453.146 195.759 Z" stroke="none" style="fill: rgb(240, 193, 93);"/>
  <path d="M 228.746 206.059 C 224.246 207.459 217.346 211.359 211.246 215.959 C 201.446 223.359 192.746 231.359 191.146 234.259 C 188.946 238.559 189.346 244.459 192.046 246.859 C 196.846 251.259 210.046 256.159 217.246 256.159 C 221.646 256.159 226.446 251.959 227.346 247.259 C 227.946 244.459 228.346 244.159 231.946 244.159 C 236.946 244.159 241.546 241.759 242.746 238.559 C 244.146 235.059 243.846 215.359 242.446 211.159 C 240.646 205.959 235.446 204.059 228.746 206.059 Z" stroke="none" style="fill: rgb(240, 193, 93);"/>
  <path d="M 260.046 205.859 C 253.846 207.059 251.046 215.959 251.946 230.959 C 252.446 238.059 252.646 238.759 255.746 241.359 C 258.046 243.259 260.446 244.159 263.546 244.359 C 267.746 244.659 268.246 244.959 268.946 247.859 C 270.046 251.959 275.046 256.159 278.946 256.159 C 283.346 256.159 299.346 250.559 303.246 247.659 C 311.846 240.959 305.446 229.659 285.746 216.759 C 270.946 206.959 265.646 204.759 260.046 205.859 Z" stroke="none" style="fill: rgb(240, 193, 93);"/>
  <path d="M 53.246 220.759 C 42.446 224.759 35.746 238.859 35.646 258.159 C 35.546 275.159 38.546 286.459 49.146 308.159 C 57.846 326.159 60.846 335.559 66.046 361.659 C 72.046 391.759 75.346 398.859 89.846 413.259 C 103.046 426.359 113.946 430.059 124.346 425.159 C 132.946 421.059 152.746 398.759 152.746 393.159 C 152.746 392.259 149.046 387.659 144.446 383.059 C 130.546 368.959 115.846 344.259 114.946 333.659 C 114.646 329.459 115.046 327.159 117.246 322.259 C 118.746 318.959 120.646 315.659 121.346 315.059 C 123.446 313.359 123.046 312.459 119.746 311.359 C 110.746 308.159 103.546 300.259 99.546 289.059 C 97.446 283.159 97.246 280.959 97.246 261.459 C 97.246 245.759 97.546 239.959 98.546 238.959 C 100.346 237.159 100.046 230.759 98.046 228.959 C 93.146 224.659 73.246 219.159 63.246 219.259 C 59.946 219.259 55.446 219.959 53.246 220.759 Z" stroke="none" style="fill: rgb(240, 193, 93);"/>
  <path d="M 424.246 220.759 C 420.446 221.459 414.746 222.559 411.746 223.059 C 405.946 224.059 400.546 226.159 397.346 228.559 C 396.046 229.659 395.646 230.859 396.046 232.859 C 398.246 243.359 398.646 246.659 398.646 254.659 C 398.746 267.359 397.046 285.559 395.046 292.659 C 392.846 300.259 386.746 306.759 379.046 309.559 C 376.146 310.559 373.746 311.459 373.746 311.559 C 373.746 311.759 375.046 314.459 376.646 317.759 C 383.646 331.959 381.046 344.959 367.246 364.659 C 360.946 373.659 350.846 384.759 346.246 387.759 C 342.346 390.259 343.046 393.959 348.746 402.359 C 355.146 411.759 365.846 422.559 371.746 425.459 C 381.546 430.259 392.046 427.159 403.946 415.759 C 411.946 408.259 414.646 404.459 419.646 394.459 C 424.746 384.159 427.246 375.859 430.746 357.059 C 434.746 335.959 439.246 323.159 450.546 300.559 C 457.646 286.459 460.046 277.959 460.546 265.459 C 461.446 242.759 453.246 223.659 441.046 220.259 C 436.246 218.859 433.046 218.959 424.246 220.759 Z" stroke="none" style="fill: rgb(240, 193, 93);"/>
  <path d="M 183.646 261.059 C 180.946 263.759 180.746 264.559 180.746 271.159 C 180.746 276.759 181.546 280.759 184.346 289.059 C 191.546 310.659 196.646 318.159 203.846 318.159 C 209.246 318.159 218.646 308.859 223.846 298.359 C 226.446 293.159 225.446 289.159 220.246 284.659 C 216.846 281.759 216.846 281.559 217.846 277.159 C 219.846 268.559 217.346 265.759 203.146 261.059 C 191.746 257.259 187.446 257.259 183.646 261.059 Z" stroke="none" style="fill: rgb(240, 193, 93);"/>
  <path d="M 291.846 260.959 C 281.246 264.259 277.746 267.359 277.746 273.159 C 277.746 275.459 278.246 278.259 278.846 279.359 C 279.846 281.259 279.546 281.859 276.446 284.359 C 274.446 285.959 272.346 288.759 271.746 290.659 C 270.746 293.559 270.946 294.659 273.146 298.859 C 276.246 304.759 284.246 315.059 286.546 315.859 C 287.446 316.259 288.846 317.159 289.546 317.859 C 291.446 319.659 293.446 319.459 297.246 317.159 C 302.746 313.759 306.546 306.659 311.146 291.159 C 316.846 271.759 316.946 265.159 311.646 260.759 C 307.646 257.359 302.846 257.459 291.846 260.959 Z" stroke="none" style="fill: rgb(240, 193, 93);"/>
  <path d="M 229.846 305.859 C 224.946 310.959 218.446 321.559 217.246 326.259 C 215.746 332.359 224.646 337.659 238.246 338.759 C 247.246 339.559 269.046 337.559 273.146 335.659 C 280.746 332.059 281.146 323.659 274.246 313.759 C 267.146 303.359 264.546 301.159 259.446 301.159 C 256.546 301.159 254.146 301.859 252.446 303.159 C 249.346 305.559 247.946 305.659 245.646 303.559 C 244.646 302.659 241.746 301.659 239.246 301.359 C 234.746 300.859 234.446 301.059 229.846 305.859 Z" stroke="none" style="fill: rgb(240, 193, 93);"/>
  <path d="M 154.546 306.459 C 149.046 308.259 142.446 313.259 137.946 319.359 C 127.246 333.459 130.946 345.359 148.646 353.859 C 152.846 355.859 158.646 358.659 161.546 360.059 C 170.346 364.459 186.746 377.259 195.646 386.859 C 206.246 398.359 212.146 401.659 220.346 400.859 C 224.746 400.459 226.746 399.559 230.146 396.759 C 237.846 390.459 242.746 376.359 241.346 364.759 L 240.546 359.059 L 237.446 359.759 C 230.746 361.259 221.746 360.459 216.446 357.759 C 206.946 353.159 199.746 345.159 199.746 339.459 C 199.746 337.959 199.046 337.759 194.946 337.959 C 188.446 338.459 182.646 335.659 174.346 328.059 C 166.846 321.159 164.146 315.559 165.146 309.159 L 165.746 305.159 L 162.046 305.259 C 159.946 305.259 156.546 305.859 154.546 306.459 Z" stroke="none" style="fill: rgb(240, 193, 93);"/>
  <path d="M 328.746 311.459 C 327.346 319.359 323.246 325.959 316.746 331.059 C 310.746 335.759 305.846 337.559 300.646 336.859 C 296.946 336.359 296.746 336.459 296.746 338.959 C 296.746 344.359 291.546 350.659 282.246 356.659 C 273.346 362.359 266.146 363.559 259.046 360.659 C 257.146 359.859 255.346 359.159 255.146 359.159 C 254.246 359.159 252.646 370.959 253.246 374.059 C 254.146 379.059 259.146 388.959 263.046 393.259 C 269.846 400.959 278.746 402.659 287.046 397.759 C 291.746 395.059 294.746 392.259 303.946 382.359 C 313.046 372.659 332.246 359.459 343.946 354.959 C 347.246 353.659 352.446 350.659 355.546 348.159 C 365.546 340.159 366.746 330.559 359.046 319.959 C 353.646 312.459 340.746 305.159 332.846 305.159 C 330.146 305.159 329.946 305.459 328.746 311.459 Z" stroke="none" style="fill: rgb(240, 193, 93);"/>
  <path d="M 157.446 403.559 C 147.346 413.859 139.646 429.059 139.546 439.159 C 139.446 446.459 141.646 450.959 148.146 456.959 C 160.046 467.759 176.546 473.159 197.646 473.159 C 204.746 473.159 214.346 472.459 219.746 471.559 C 234.346 468.959 260.446 469.259 279.246 472.159 C 310.046 476.859 330.146 471.859 348.046 455.259 C 356.246 447.659 357.646 439.859 353.046 428.359 C 349.546 419.459 340.646 405.159 336.246 401.359 L 332.746 398.259 L 324.546 402.659 C 309.346 410.659 285.746 417.159 271.646 417.159 C 262.946 417.159 258.646 415.059 252.446 408.059 L 247.846 402.759 L 243.546 407.459 C 240.946 410.159 236.746 413.159 233.346 414.759 C 227.846 417.259 226.946 417.359 216.346 416.859 C 204.946 416.359 197.046 414.659 188.246 411.059 C 181.546 408.159 170.046 402.559 166.046 400.059 L 162.746 398.059 L 157.446 403.559 Z" stroke="none" style="fill: rgb(240, 193, 93);"/>
  <path d="M 125.246 436.159 C 123.046 437.759 118.346 440.259 114.746 441.859 C 111.146 443.359 108.146 444.659 107.946 444.759 C 107.746 444.859 106.746 450.059 105.646 456.259 C 104.646 462.559 103.446 468.459 103.146 469.359 C 102.546 471.559 104.646 470.959 109.246 467.759 C 110.846 466.559 115.346 464.059 119.246 462.059 L 126.246 458.459 L 126.846 449.559 C 127.146 444.659 128.146 438.959 129.046 436.859 C 130.946 432.459 130.546 432.359 125.246 436.159 Z" stroke="none" style="fill: rgb(240, 193, 93);"/>
  <path d="M 364.746 433.459 C 364.746 433.759 365.446 435.859 366.246 438.259 C 367.146 440.659 368.146 446.059 368.446 450.259 L 369.046 457.759 L 376.646 461.959 C 380.846 464.259 385.946 467.159 387.946 468.359 C 390.046 469.559 391.946 470.259 392.246 470.059 C 392.746 469.459 388.146 446.659 387.246 445.159 C 386.946 444.659 383.946 443.259 380.646 442.059 C 377.346 440.859 372.946 438.659 370.946 437.159 C 366.246 433.859 364.746 432.959 364.746 433.459 Z" stroke="none" style="fill: rgb(240, 193, 93);"/>
</svg>